<svg xmlns="http://www.w3.org/2000/svg" xmlns:xlink="http://www.w3.org/1999/xlink" width="500" height="500"><image overflow="visible" width="906" height="1042" xlink:href="626016A5.png" transform="matrix(.24 0 0 .24 229.72 168.227)"/><image overflow="visible" width="1033" height="1227" xlink:href="626016A7.png" transform="matrix(.24 0 0 .24 162.228 121.936)"/><image overflow="visible" width="713" height="1386" xlink:href="626016A2.png" transform="matrix(.24 0 0 .24 241.093 56.147)"/><image overflow="visible" width="933" height="1131" xlink:href="626016A3.png" transform="matrix(.24 0 0 .24 90.324 135.92)"/><image overflow="visible" width="1039" height="766" xlink:href="626016AD.png" transform="matrix(.24 0 0 .24 -6.58 128.966)"/><image overflow="visible" width="985" height="968" xlink:href="626016AF.png" transform="matrix(.24 0 0 .24 63.497 187.877)"/><image overflow="visible" width="608" height="611" xlink:href="626016A0.png" transform="matrix(.24 0 0 .24 251.53 267.873)"/><image overflow="visible" width="549" height="584" xlink:href="626016A1.png" transform="matrix(.24 0 0 .24 228.97 281.11)"/><image overflow="visible" width="663" height="703" xlink:href="626016A6.png" transform="matrix(.24 0 0 .24 277.73 205.64)"/><image overflow="visible" width="573" height="609" xlink:href="37E345EE.png" transform="matrix(.24 0 0 .24 311.603 236.267)"/><image overflow="visible" width="634" height="1041" xlink:href="37E345E9.png" transform="matrix(.24 0 0 .24 234.455 150.517)"/><radialGradient id="a" cx="267.825" cy="344.073" r="52.302" gradientTransform="rotate(3.032 212.68 267.752)" gradientUnits="userSpaceOnUse"><stop offset="0" stop-color="#ff5c00" stop-opacity=".8"/><stop offset="1" stop-color="#ff7100" stop-opacity=".193"/></radialGradient><path fill="url(#a)" d="M302.26 308.519c-2.579-4.35-5.416-3.797-9.544-5.42-8.92-3.982-9.142.22-14.153-11.281-2.469-6.452-3.351-16.329-14.004-14.082-7.077 1.03-6.083 8.808-11.208 12.75-9.473 6.522-38.443-3.434-31.812 17.281 2.984 9.99 17.653 11.467 23.549 19.504 5.196 7.999-.666 12.605.292 21.083.883 9.879 6.671 6.674 11.978 12.571 3.906 5.823.624 14.78 6.004 19.278 14.815 12.019 22.083-19.2 22.563-28.305.592-11.205-4.163-14.265 4.647-21.524 3.687-3.317 26.911-17.541 9.55-21.266"/><radialGradient id="b" cx="261.586" cy="361.7" r="11.008" gradientUnits="userSpaceOnUse"><stop offset="0" stop-color="#ffb300" stop-opacity=".8"/><stop offset="1" stop-color="#ffb700" stop-opacity=".193"/></radialGradient><path fill="url(#b)" d="M255.232 354.873c7.363 1.578 5.259-7.89 12.097-7.363 1.578 5.785 0 23.668-3.682 28.402-2.104-4.734-.526-9.994-2.63-14.728-1.052-2.104-4.208-4.733-4.733-6.312"/><radialGradient id="c" cx="258.055" cy="325.682" r="14.536" gradientUnits="userSpaceOnUse"><stop offset=".005" stop-color="#ff261f" stop-opacity=".8"/><stop offset="1" stop-color="#ff471c" stop-opacity=".193"/></radialGradient><path fill="url(#c)" d="M251.024 320.685c-2.104 3.156 6.837 13.149 10.52 15.253-1.053-7.889 7.363-11.571 2.63-20.513-3.683 1.053-14.202 6.312-13.676 8.941"/><radialGradient id="d" cx="259.626" cy="326.996" r="10.145" gradientUnits="userSpaceOnUse"><stop offset=".005" stop-color="#ff261f" stop-opacity=".8"/><stop offset="1" stop-color="#ff471c" stop-opacity=".193"/></radialGradient><path fill="url(#d)" d="M250.498 317.003c-.526 6.838 6.312 3.156 9.468 5.786 4.208 3.155 5.26 11.571 7.89 15.253 3.155-5.786-2.63-16.306-4.208-22.091-3.156 2.104-7.89 3.682-11.571 4.733"/><radialGradient id="e" cx="283.992" cy="245.709" r="52.997" gradientTransform="rotate(3.032 212.68 267.752)" gradientUnits="userSpaceOnUse"><stop offset="0" stop-color="#ffb300" stop-opacity=".8"/><stop offset="1" stop-color="#ffb700" stop-opacity=".193"/></radialGradient><path fill="url(#e)" d="M274.222 302.772c-23.987.029-9.114-23.818-1.561-31.847 4.187-5.613 11.912-16.874 5.143-23.713-3.675-4.083-12.758-3.915-17.216-5.447-7.042-1.668-15.921-5.379-17.417-13.885-1.495-8.505 5.854-12.656 5.006-21.127-.815-9.119-7.211-10.752 4.154-17.283 7.961-3.469 17.624-2.311 25.959-.574 6.432.987 17.354 2.861 22.251 8.306 8.436 12.113-5.888 13.302-11.471 20.786-13.884 17.417 14.149 26.677 26.125 33.143 7.553 4.289 17.453 13.239 9.251 21.233-4.117 4.319-17.081 4.284-22.32 5.303-5.886.986-18.237 1.631-22.389 6.598-9.698 11.805 7.823 11.434 13.437 15.618 3.742 2.791 6.191 5.513 4.625 10.616-8.505 1.496-20.108.235-24.903-7.149"/><image overflow="visible" width="965" height="734" xlink:href="37E345EA.png" transform="matrix(.24 0 0 .24 56.82 239.259)"/><image overflow="visible" width="701" height="647" xlink:href="37E345E8.png" transform="matrix(.24 0 0 .24 124.479 253.94)"/><radialGradient id="f" cx="219.87" cy="314.119" r="50.533" gradientTransform="rotate(3.032 212.68 267.752)" gradientUnits="userSpaceOnUse"><stop offset="0" stop-color="#007ed9" stop-opacity=".8"/><stop offset="1" stop-color="#007cff" stop-opacity=".193"/></radialGradient><path fill="url(#f)" d="M258.585 366.913c19.646.336-7.073-25.656-8.289-29.23-1.731-7.114 5.089-16.586 1.257-23.811-3.832-7.226-10.983-4.795-16.327-9.991-12.603-14.01 15.856-34.278-7.07-38.999-14.633-2.177-40.951 4.158-52.637 12.67-17.511 12.418-.924 17.509 12.16 22.413 17.211 6.527 13.93 15.482 15.18 31.702 1.214 16.918 7.221 22.854 23.88 26.543 10.431 1.954 20.677 7.411 30.443 8.629"/><image overflow="visible" width="618" height="562" xlink:href="37E345E6.png" transform="matrix(.24 0 0 .24 130.046 267.501)"/><radialGradient id="g" cx="218.786" cy="336.441" r="32.832" gradientUnits="userSpaceOnUse"><stop offset="0" stop-color="#003600" stop-opacity=".8"/><stop offset="1" stop-color="#006100" stop-opacity=".193"/></radialGradient><path fill="url(#g)" d="M203.158 302.098c-2.104-2.104-7.013-2.805-9.818.702-2.104 2.104 1.402 7.714.701 10.52-.701 3.506-5.61 6.312-4.208 10.52 3.506 15.428 28.753 6.312 35.065 21.038 3.506 9.116-10.52 18.233-7.714 24.546 1.402 2.805 23.143 4.207 26.649 2.104 9.117-5.61.701-11.922-1.402-18.233-2.805-7.014-1.403-16.131-5.611-21.74-4.909-8.416-17.532-11.222-23.143-21.039"/><radialGradient id="h" cx="204.186" cy="287.996" r="35.135" gradientUnits="userSpaceOnUse"><stop offset="0" stop-color="#003600" stop-opacity=".8"/><stop offset="1" stop-color="#006100" stop-opacity=".193"/></radialGradient><path fill="url(#h)" d="M189.132 345.578c11.359-2.351 12.614-9.644 10.996-19.679-.617-3.824-3.215-9.735-.244-13.187 1.948-2.263 12.763-3.794 14.406-.883-2.823-5-7.36-7.918-9.906-13.939-1.893-4.479-3.591-8.464-6.839-11.992-7.651 3.225-14.772 3.961-22.531.989-6.061-2.32-12.625-8.014-19.544-6.53-9.818 2.104-16.129 13.325-14.728 23.143 2.104 13.325 7.715 7.715 17.533 9.819 20.338 4.208 7.714 36.467 30.857 32.259z"/><radialGradient id="i" cx="241.283" cy="330.403" r="14.745" gradientUnits="userSpaceOnUse"><stop offset="0" stop-color="#00d1ff" stop-opacity=".8"/><stop offset="1" stop-color="#00c5ff" stop-opacity=".193"/></radialGradient><path fill="url(#i)" d="M242.083 348.035c1.052 1.578 3.156 2.104 5.26 2.104 2.63-7.364-2.63-40.5-12.623-39.448-1.052 6.838 3.156 13.675 4.208 19.987 1.052 6.312-.526 15.778 4.208 19.461"/><radialGradient id="j" cx="253.32" cy="367.087" r="13.989" gradientUnits="userSpaceOnUse"><stop offset="0" stop-color="#00d1ff" stop-opacity=".8"/><stop offset="1" stop-color="#00c5ff" stop-opacity=".193"/></radialGradient><path fill="url(#j)" d="M245.238 352.77c4.734-2.104 4.208 3.682 7.364 6.837 3.682 4.208 7.889 4.208 8.941 9.468 1.052 5.26-2.104 8.415 1.052 15.253 0 0 0 .526 0 0-5.26-1.052-22.091-30.506-17.883-34.714"/><radialGradient id="k" cx="218.012" cy="236.144" r="59.473" gradientTransform="rotate(3.032 212.68 267.752)" gradientUnits="userSpaceOnUse"><stop offset="0" stop-color="#004cd9" stop-opacity=".8"/><stop offset="1" stop-color="#05f" stop-opacity=".193"/></radialGradient><path fill="url(#k)" d="M240.335 310.867c-10.8 5.048-26.354-6.308-22.849-19.466 2.582-8.993 15.409-12.529 7.523-22.778-3.869-6.524-18.576-7.301-24.73-10.435-8.92-3.982-20.529-10.214-19.237-21.382 1.329-11.869 11.096-10.651 17.769-17.321 14.156-15.405-17.208-33.213 1.262-50.497 11.834-11.314 34.908-9.393 43.272 5.094 9.617 17.362-10.842 32.434-5.5 50.976 4.088 15.666 29.078 21.199 15.474 39.441-6.047 8.108-15.962 9.691-18.618 20.086-2.804 13.194 6.559 8.773 10.98 18.137 2.469 6.45.146 10.541-7.521 9.434"/><g><radialGradient id="l" cx="227.303" cy="174.321" r="22.941" gradientUnits="userSpaceOnUse"><stop offset="0" stop-color="#007ed9" stop-opacity=".8"/><stop offset="1" stop-color="#007cff" stop-opacity=".193"/></radialGradient><path fill="url(#l)" d="M227.355 197.607c.526-11.045-6.312-19.461-7.364-30.506-.526-5.786-1.578-7.89-4.208-12.624-5.26-9.467-1.578-9.467 8.941-9.467 9.468 0 8.941-.526 11.571 7.89 1.578 6.312 5.786 13.675 4.208 19.987-1.052 6.837-5.26 9.993-3.682 17.357 1.052 3.682 5.259 5.786 4.208 9.993-1.578 6.312-1.578 2.104-5.786 1.052-3.156-.526-2.63-4.734-7.364-2.104-.526-1.052-.526-1.578-.526-2.63"/></g><g><radialGradient id="m" cx="225.913" cy="244.148" r="22.452" gradientUnits="userSpaceOnUse"><stop offset="0" stop-color="#00d1ff" stop-opacity=".8"/><stop offset="1" stop-color="#00c5ff" stop-opacity=".193"/></radialGradient><path fill="url(#m)" d="M233.667 273.873c.526-9.993-3.156-19.986-5.26-29.98-1.052-5.786-2.104-11.045-2.63-17.357-.526-3.682.526-17.883-5.259-11.571-7.364 7.89 3.682 57.856 12.623 59.961"/></g><g><radialGradient id="n" cx="218.513" cy="197.082" r="35.613" gradientUnits="userSpaceOnUse"><stop offset="0" stop-color="#007ed9" stop-opacity=".8"/><stop offset="1" stop-color="#007cff" stop-opacity=".193"/></radialGradient><path fill="url(#n)" d="M225.777 215.491c.526-10.52-4.208-21.039-5.786-31.032-1.052-7.89-1.052-33.136-9.467-36.292-8.416 4.734-1.052 16.305-.526 23.668 1.052 11.571-.526 18.409 4.734 28.929 3.682 6.312 1.052 12.097 3.682 17.883 2.63 5.26 6.837 6.837 8.416 13.675 1.052 4.734 1.578 9.467 3.682 13.675 0-12.624-4.208-23.669-4.734-35.766"/></g><g><radialGradient id="o" cx="186.055" cy="239.436" r="48.688" gradientTransform="rotate(3.032 212.68 267.752)" gradientUnits="userSpaceOnUse"><stop offset="0" stop-color="#00d1ff" stop-opacity=".8"/><stop offset="1" stop-color="#00c5ff" stop-opacity=".193"/></radialGradient><path fill="url(#o)" d="M216.757 286.125c-10.411.747-24.191 3.91-32.9-3.034-2.483-2.075-3.572-6.022-6.667-8.779-4.389-2.824-10.275-1.839-15.378-3.405-12.112-3.881-16.976-9.972-13.741-22.117 1.566-5.103 4.322-8.199 4.595-13.37.375-7.111-3.4-9.255-4.999-15.821-1.667-5.274-6.665-21.096-6.392-26.268 1.941-12.214 29.465-2.728 35.808 2.126 9.692 7.105-.802 22.411 12.976 31.565 9.356 6.977 26.877 6.605 26.739 21.508-.341 6.465-8.474 13.166-4.902 19.188 2.925 5.988 12.758 3.915 17.112 7.386 13.709 10.447-4.561 12.725-13.646 12.892"/></g><g><image overflow="visible" width="768" height="700" xlink:href="37E345F9.png" transform="matrix(.24 0 0 .24 50.996 190.451)"/></g><g><radialGradient id="p" cx="150.401" cy="270.984" r="43.183" gradientTransform="rotate(3.032 212.68 267.752)" gradientUnits="userSpaceOnUse"><stop offset="0" stop-color="#00a381" stop-opacity=".8"/><stop offset="1" stop-color="#0098f4" stop-opacity=".193"/></radialGradient><path fill="url(#p)" d="M147.053 218.916c-8.608 3.435-46.956 17.617-22.801 26.671 7.655 2.349 15.583-.474 19.699 7.522 3.538 6.668-2.69 14.118 6.767 19.156 6.906 4.255 15.651-1.767 22.386 5.72 4.865 6.091 1.223 13.678 5.475 19.088 9.694 12.829 37.459 2.626 24.057-13.639-6.055-8.1-16.193-12.523-21.533-21.883-2.994-4.694-5.306-10.002-4.999-15.821.273-5.171 4.425-10.137 4.018-14.696-.884-7.826-6.736-7.486-11.737-10.993-5.647-3.539-6.701-8.132-11.634-12.93-7.484-5.582-18.032-2.25-14.019 7.686"/></g><g><image overflow="visible" width="573" height="635" xlink:href="37E345FA.png" transform="matrix(.24 0 0 .24 267.918 173.216)"/></g><g><radialGradient id="q" cx="250.44" cy="225.966" r="40.246" gradientTransform="rotate(3.032 212.68 267.752)" gradientUnits="userSpaceOnUse"><stop offset="0" stop-color="#ffb300" stop-opacity=".8"/><stop offset="1" stop-color="#ffb700" stop-opacity=".193"/></radialGradient><path fill="url(#q)" d="M264.082 246.811c-4.276 1.179-8.517 1.657-12.718 1.435-11.868-1.328-8.882-4.682-12.64-13.308-3.647-10.727-8.697-8.184-16.031-15.594-10.061-8.959-2.873-12.091 2.474-20.236 6.193-10.909 6.452-15.812 21.196-15.735 12.605.666 13.896 2.84 14.668 14.82.882 9.878 1.324 14.817 9.358 22.264 9.396 8.222 21.191 10.952 16.214 25.436-4.094 11.02-27.503 28.746-40.698 25.941-20.788-5.311 15.594-16.03 15.264-23.07"/></g><g><radialGradient id="r" cx="246.701" cy="217.839" r="27.762" gradientUnits="userSpaceOnUse"><stop offset="0" stop-color="#fff" stop-opacity=".8"/><stop offset="1" stop-color="#fff" stop-opacity=".193"/></radialGradient><path fill="url(#r)" d="M253.654 255.465c0-13.149-4.734-24.195-5.786-36.292-1.052-10.52 5.26-33.662-6.837-39.974-3.682 7.89 1.578 15.779 3.156 23.668 1.578 6.838 1.052 13.675 1.052 20.513 0 6.312-3.156 37.344 7.89 32.61"/></g><g><radialGradient id="s" cx="240.489" cy="171.955" r="21.581" gradientUnits="userSpaceOnUse"><stop offset="0" stop-color="#ffb300" stop-opacity=".8"/><stop offset="1" stop-color="#ffb700" stop-opacity=".193"/></radialGradient><path fill="url(#s)" d="M240.505 194.452c13.149 9.468 2.104-21.039 1.578-23.143-2.104-11.571 8.416-21.039-7.889-23.668-1.052 15.253 4.208 32.084 5.259 47.863"/></g><g><radialGradient id="t" cx="259.219" cy="345.677" r="41.405" gradientUnits="userSpaceOnUse"><stop offset="0" stop-color="#ff5c00" stop-opacity=".8"/><stop offset="1" stop-color="#ff7100" stop-opacity=".193"/></radialGradient><path fill="url(#t)" d="M244.712 315.951c3.125 3.125 9.335 3.265 11.731 6.918 2.634 4.014.618 11.394 2.047 16.107 1.32 4.353 4.753 9.251 4.001 14.109-2.621.002-6.932.4-8.835.213-1.825-.18-1.473 2.077-3.183-1.056-.805-1.475-.146-6.137-.384-7.89-1.415-10.426-6.384-20.143-5.377-31.032"/></g><g><radialGradient id="u" cx="233.904" cy="301.656" r="24.61" gradientUnits="userSpaceOnUse"><stop offset="0" stop-color="#004cd9" stop-opacity=".8"/><stop offset="1" stop-color="#05f" stop-opacity=".193"/></radialGradient><path fill="url(#u)" d="M204.563 287.022c2.454 2.806 5.61-1.752 8.065-2.805 7.363-3.507 9.818.701 13.324 6.313 3.857 6.661 8.065 9.817 15.078 12.271 4.909 1.754 13.325 2.455 13.325 9.117 2.454.702 7.714-3.506 8.766.351 1.053 3.857-4.909 7.714-7.363 8.065-6.662.7-12.623-7.714-18.584-10.17-7.013-3.155-12.974-6.312-18.584-11.22-3.857-2.806-14.026-5.961-13.675-11.221"/></g><g><radialGradient id="v" cx="209.815" cy="268.594" r="13.512" gradientUnits="userSpaceOnUse"><stop offset="0" stop-color="#00d1ff" stop-opacity=".8"/><stop offset="1" stop-color="#00c5ff" stop-opacity=".193"/></radialGradient><path fill="url(#v)" d="M218.94 270.718c2.104 7.89-3.156 5.26-7.364 7.89-3.156 2.104-1.052 5.26-5.259 5.785-4.208.526-8.416-3.155-6.838-7.89 1.578-5.785 7.364-3.155 6.838-11.571-.526-4.733-7.364-13.149 3.156-12.097 4.733.525 13.149 15.253 10.519 17.883"/></g><g><radialGradient id="w" cx="187.908" cy="268.088" r="38.081" gradientUnits="userSpaceOnUse"><stop offset="0" stop-color="#00d1ff" stop-opacity=".8"/><stop offset="1" stop-color="#00c5ff" stop-opacity=".193"/></radialGradient><path fill="url(#w)" d="M197.375 279.659c5.26 5.26 11.045 12.098 18.409 5.26 6.312-5.786 2.63-12.623-4.734-12.098-5.786 0-6.312 4.734-12.623 0-9.994-7.363-6.312-16.305-6.312-25.772-18.409 1.052 7.364 32.61 10.52 38.922"/></g><g><radialGradient id="x" cx="242.697" cy="293.375" r="17.98" gradientUnits="userSpaceOnUse"><stop offset="0" stop-color="#ffb300" stop-opacity=".8"/><stop offset="1" stop-color="#ffb700" stop-opacity=".193"/></radialGradient><path fill="url(#x)" d="M223.674 278.081c4.733 2.104 7.363 11.571 10.52 15.253 4.208 5.26 2.63 3.683 9.467 6.313 4.208 1.577 8.942 4.733 11.572 7.889-7.364 5.26 4.207 1.053 6.312 2.104 2.63-12.098-24.721-32.61-35.24-33.137-1.052.526-.526 1.578-.526 2.63"/></g><g><radialGradient id="y" cx="231.411" cy="278.608" r="29.76" gradientUnits="userSpaceOnUse"><stop offset="0" stop-color="#ffb300" stop-opacity=".8"/><stop offset="1" stop-color="#ffb700" stop-opacity=".193"/></radialGradient><path fill="url(#y)" d="M256.81 306.483c-3.682 1.578-2.63 5.786-1.052 4.734 9.512-8.154-5.013-23.374-12.137-28.457-2.034-1.451-25.867-14.318-23.629-17.303-4.733 6.312 4.734 7.89 1.578 14.201 7.89 0 35.766 19.987 33.136 28.402"/></g><g><radialGradient id="z" cx="214.469" cy="244.419" r="27.91" gradientUnits="userSpaceOnUse"><stop offset="0" stop-color="#001e6c" stop-opacity=".8"/><stop offset="1" stop-color="#002877" stop-opacity=".193"/></radialGradient><path fill="url(#z)" d="M194.745 234.952c1.052-4.208 6.312-7.364 10.52-6.838 7.364 1.052 5.26 8.416 7.364 13.675 2.63 6.312 6.312 11.571 7.363 18.936 1.578 9.467 2.63 15.253 14.202 17.883-3.156-4.208-7.364-5.26-9.994-9.994-1.578-3.155-1.052-8.415-1.578-12.623-1.052-7.889-2.63-15.779-3.682-23.668-1.052-3.682-1.052-21.565-5.26-22.091-1.578 0-16.305 17.357-16.831 19.987"/></g><g><radialGradient id="A" cx="235.07" cy="310.21" r="23.561" gradientUnits="userSpaceOnUse"><stop offset="0" stop-color="#001e6c" stop-opacity=".8"/><stop offset="1" stop-color="#002877" stop-opacity=".193"/></radialGradient><path fill="url(#A)" d="M250.498 310.517c-5.26 4.559-15.077-4.559-19.987-7.363l-6.312-3.156c-2.104-1.753-2.454-4.207-3.857-5.61-1.403-1.402-8.416-4.559-8.767 1.052-1.052-.351-2.104-.701-3.156-1.402 2.455 1.052 4.208 2.454 4.208 4.909-2.104 0-4.208 0-5.61 1.052 4.208 2.805 12.973 6.312 4.909 10.168 1.052 1.053 3.857 1.403 4.559 2.456 1.052 1.401 1.052 2.454 2.104 3.856 2.104 3.155 4.558 6.312 7.714 8.415 6.662 4.56 9.818 5.26 9.117-3.506-.351-3.857-2.455-5.962 3.156-6.312 2.805-.351 5.961 2.104 8.416 3.155 4.208 1.402 16.129 4.208 16.129-3.155-2.805 0-6.661 2.805-9.467 1.402-2.454-1.402-3.506-4.909-.702-6.313"/></g><g><radialGradient id="B" cx="218.94" cy="294.175" r="12.244" gradientUnits="userSpaceOnUse"><stop offset="0" stop-color="#001e6c" stop-opacity=".8"/><stop offset="1" stop-color="#002877" stop-opacity=".193"/></radialGradient><path fill="url(#B)" d="M204.213 288.074c.526.526 6.837 2.63 9.467 2.104 5.786-1.578 4.208-8.416 11.045-3.156 2.63 2.104 7.364 11.571 8.941 14.728-3.682 2.104-16.831-2.63-20.513-5.26 4.208-.526 7.89 2.104 6.837 6.312-4.208.526-11.571 1.578-12.623-3.155 5.26-2.104.526-6.838-1.052-9.994"/></g><g><radialGradient id="C" cx="274.08" cy="315.25" r="13.943" gradientUnits="userSpaceOnUse"><stop offset=".005" stop-color="#ff261f" stop-opacity=".8"/><stop offset="1" stop-color="#ff471c" stop-opacity=".193"/></radialGradient><path fill="url(#C)" d="M264.523 298.945c-2.716 2.716-.052 8.223 2.285 10.308 3.568 3.186 14.639 2.994 15.67-2.898 3.624.758 3.047 10.231 1.408 12.435-2.991 4.024-8.665.251-12.18 2.721-2.864 2.013-2.26 7.123-1.572 10.046-2.455-.352-2.455-12.273-3.507-15.779-.701-3.507-7.364-16.48-.701-16.831"/></g><g><radialGradient id="D" cx="273.973" cy="322.342" r="12.764" gradientUnits="userSpaceOnUse"><stop offset=".005" stop-color="#7100a1" stop-opacity=".8"/><stop offset="1" stop-color="#8c2195" stop-opacity=".193"/></radialGradient><path fill="url(#D)" d="M263.647 307.535c4.733 7.364 17.357 5.786 18.935 9.468-13.148 1.052 12.624 17.357-4.207 19.987-14.201 2.104-9.994-17.357-12.624-25.247"/></g><g><radialGradient id="E" cx="283.18" cy="272.449" r="20.752" gradientUnits="userSpaceOnUse"><stop offset=".005" stop-color="#ff261f" stop-opacity=".8"/><stop offset="1" stop-color="#ff471c" stop-opacity=".193"/></radialGradient><path fill="url(#E)" d="M294.329 272.296c4.559-3.507 8.767-9.818 4.208-14.376-2.104-1.754-4.558-1.403-6.662-3.857-3.155-3.506-3.155-8.766-7.013-2.104-2.104 3.507-2.806 8.416-4.559 12.273-2.104 4.208-4.559 8.415-7.715 12.271-2.454 3.156-7.363 5.962-6.662 10.52.351 2.455 5.61 8.065 8.065 9.117.351-8.766.351-12.623 10.168-16.129 8.416-3.156 12.975-5.611 15.429-15.429"/></g><g><radialGradient id="F" cx="236.297" cy="193.204" r="55.819" gradientUnits="userSpaceOnUse"><stop offset=".005" stop-color="#7100a1" stop-opacity=".8"/><stop offset="1" stop-color="#8c2195" stop-opacity=".193"/></radialGradient><path fill="url(#F)" d="M251.55 223.906c1.119 8.95 2.039 18.583 4.224 27.338 1.344 5.389.493 12.249 2.499 17.213.824-3.286 1.575-6.163 3.259-9.193 1.271-2.287 4.643-4.584 5.915-7.232 2.453-5.104-4.272-7.991-6.635-11.405-3.966-5.73-2.54-12.801-3.476-19.352-2.104-14.726-3.681-23.141 15.253-21.563 4.733.526 11.046 5.26 15.253 4.734 8.941-1.052 1.578-7.89-3.155-9.994-7.364-3.682-33.137-6.837-36.292 1.052-2.104 5.26 2.103 22.617 3.155 28.402z"/></g><g><radialGradient id="G" cx="289.254" cy="270.718" r="23.508" gradientUnits="userSpaceOnUse"><stop offset=".005" stop-color="#7100a1" stop-opacity=".8"/><stop offset="1" stop-color="#8c2195" stop-opacity=".193"/></radialGradient><path fill="url(#G)" d="M303.621 245.471c.526 4.208-1.052 5.786-3.682 8.416-1.052 1.052-3.682 0-4.208.525-3.155 3.156-2.63 5.26-3.682 8.941-3.682 10.52-11.571 11.572-17.883 19.987-4.208 4.733-6.838 14.201 2.63 14.728-9.993-10.52 7.363-19.461 14.728-24.721 9.993-7.363 18.408-16.306 16.305-29.98-1.578.526-4.208 0-5.26.526"/></g><g><radialGradient id="H" cx="290.473" cy="214.439" r="43.883" gradientUnits="userSpaceOnUse"><stop offset="0" stop-color="#fff" stop-opacity=".8"/><stop offset="1" stop-color="#fff" stop-opacity=".193"/></radialGradient><path fill="url(#H)" d="M291.524 249.153c12.097 8.416 13.675-4.208 11.571-13.149-2.63-11.571-2.63-18.935-11.571-27.351-4.208-3.682-11.046-12.097-17.357-9.467-8.416 3.682-2.63 12.097.526 16.305 5.259 6.837 6.837 8.416 5.785 17.357-1.052 6.838-3.156 10.52 3.682 15.253 2.63 1.578 6.312 2.104 8.941 2.629"/></g><g><radialGradient id="I" cx="259.888" cy="248.977" r="15.696" gradientUnits="userSpaceOnUse"><stop offset=".005" stop-color="#ff261f" stop-opacity=".8"/><stop offset="1" stop-color="#ff471c" stop-opacity=".193"/></radialGradient><path fill="url(#I)" d="M257.16 270.191c-1.402-8.064 6.312-10.869 8.767-17.531 1.402-4.559-.351-8.065-3.155-11.572-2.806-4.208-4.56-9.116-7.364-13.324-4.207 2.805-.701 16.129-.351 20.688.701 7.013 2.805 14.376 2.455 21.39"/></g><g><path d="M305.58 229.59c-2.125-7.525-8.072-12.588-14.891-15.941-.216-.107-.563.052-.604.29-1.003 5.692 7.096 11.686 10.27 15.505 7.433 8.945 5.514 23.757.318 33.345-5.008 9.243-14.183 13.648-22.366 19.474-6.157 4.383-7.957 9.692-2.385 15.45.248.257.969-.06.696-.342-10.512-10.861 7.821-17.812 15.035-23.341 7.749-5.938 12.361-14.207 13.816-23.786.779-5.131.341-10.394-.942-15.395-.957-3.73-4.444-6.95-6.923-9.705-2.551-2.834-6.707-6.458-6.871-10.552-.004-.084 6.958 4.361 7.616 4.927 3.154 2.721 5.343 6.292 6.468 10.274.104.365.866.16.763-.203z"/><path d="M271.378 296.664c6.035-.396 10.195 5.355 12.166 10.345 2.208 5.588.15 14.386-7.822 12.038-7.81-2.3-14.064-13.124-9.594-20.514.115-.188-.556-.031-.602-.009-11.084 5.386 3.053 21.154 11.275 21.371 9.83.261 8.89-15.634 2.982-19.859-.187-.135-.858.169-.715.271 4.078 2.917 5.026 8.466 4.108 13.121-.805 4.077-3.879 6.814-8.311 5.812-2.768-.626-5.08-2.688-7.04-4.62a22.444 22.444 0 0 1-4.869-7.191c-.444-1.05-.637-2.158-.733-3.285-.23-2.714 1.565-2.871 2.708-4.759-2.566 4.241-.635 9.625 1.867 13.36 3.339 4.981 11.229 10.207 16.407 4.747 6.739-7.107-2.756-21.748-11.511-21.176-.219.016-.824.38-.316.348zM297.618 204.035c-5.17-7.32-11.745-11.435-20.63-12.509-8.795-1.064-18.33-.113-27.548 2.112.019.259.033.519.049.778 4.224-.906 8.5-1.579 12.78-2.055 12.553-1.396 24.122-.611 32.78 9.576 3.421 4.024 6.059 8.701 7.98 13.603.944 2.407 1.443 4.934 1.723 7.494a17.657 17.657 0 0 1-.167 4.267c.113-.941-.443-2.15-.757-3.083-2.671-7.964-9.032-13.896-16.212-17.862-.233-.129-.931.203-.602.384 8.813 4.868 14.955 12.103 17.276 22.001.068.289.715.082.764-.146 1.889-8.855-2.445-17.492-7.436-24.56zM215.317 209.015c-11.257 8.416-20.681 20.212-24.109 33.607-.077.301.694.188.764-.087 3.395-13.26 12.355-24.458 23.345-32.767v-.753zM227.412 272.461c-2.881-3.462-4.486-6.832-4.518-10.842a13.177 13.177 0 0 1-.702-1.44 14.762 14.762 0 0 0 .022 4.454c.348 2.218 1.381 4.09 2.655 5.839-.259-.026-.608.142-.524.348 1.032 2.554 3.605 4.115 5.574 6.024.798 1.161 1.479 2.384 1.912 3.733.102.32.804.12.762-.203-.188-1.439-.827-2.539-1.667-3.493-1.009-1.576-2.331-2.998-3.514-4.42zm-2.068-1.351c.724.939 1.503 1.853 2.272 2.771-.9-.808-1.719-1.683-2.272-2.771z"/><path d="M228.626 275.093c11.212 5.068 20.873 14.415 28.175 24.172 3.386 4.526 9.057 11.933 5.016 17.489-2.727 3.752-12.917 5.194-12.239-1.327-.184 1.77 2.686-4.503 1.053-1.527a8.747 8.747 0 0 0-.835 2.016c-1.905 7.016 16.668 9.463 15.322-3.106-.022-.204-.789-.045-.762.203 1.439 13.431-19.624 8.729-11.892-.637.203-.247-.489-.13-.58-.074-3.846 2.418-4.148 7.375 1.274 8.215 4.99.771 10.536-2.68 10.994-7.961.306-3.555-2.691-7.417-4.397-10.261-2.208-3.681-5.045-6.989-7.919-10.156-6.333-6.979-13.954-13.473-22.595-17.38-.194-.088-.895.208-.615.334z"/><path d="M255.829 307.922c-2.073.423-3.694 1.235-5.215 2.733-.931.915-1.425 2.142-1.818 3.354-.637 1.966-1.831.992-3.327.041-2.274-1.446-3.941-3.817-4.581-6.418-1.25-5.076 4.08-4.391 7.147-2.598.188.11.817-.2.718-.259-4.49-2.663-11.97-3.95-11.786 3.387l.762-.203c-.439-1.726-.629-3.232.221-4.887 1.657-3.224 6.432-1.278 8.506-.142.193.105.811-.208.718-.259-5.049-2.766-12.056-1.772-10.208 5.49.042.166.767-.018.762-.203-.097-3.862 2.173-5.762 6.428-4.664 1.155.298 2.238.829 3.285 1.388.716-.372.604-.643-.337-.813a9.696 9.696 0 0 0-.798-.345c-1.493-.527-3.559-.992-4.967.088-5.466 4.198 3.722 11.348 7.266 12.483.147.048.682-.048.694-.248.237-3.802 2.334-6.821 6.386-7.648.3-.059.678-.386.144-.277zM261.843 249.776c-1.092-2.925-4.215-4.634-7.594-5.711.012.252.012.505.021.756 4.902 1.908 8.64 5.565 6.468 11.401-1.329 3.573-4.113 6.9-3.257 10.915.072.336.835.139.763-.203-1.309-6.138 5.932-10.913 3.599-17.158z"/><path d="M191.208 241.892c-.167 5.573-4.549 6.206-6.402 10.541-1.014 2.371.31 5.378 1.217 7.533 2 4.75 5.139 8.909 7.747 13.322 4.949 8.375 16.201 29.875 27.095 16.345.18-.223-.413-.114-.484-.085-4.966 2.01-14.07 3.284-16.313-3.152-.068-.196-.81.006-.762.203 1.77 7.4 12.225 11.377 18.237 14.509 10.1 5.26 20.625 10.446 29.124 18.134.163.147.858-.141.715-.269-12.822-11.601-30.228-15.942-43.393-26.827a14.265 14.265 0 0 1-3.376-4.055c-.721-1.288-1.292-.602-.447.38 1.735 2.02 3.937 2.636 6.509 2.929 2.362.269 4.803-.155 7.098-.676.567-.128 2.614-1.321 1.606-.069-2.48 3.08-6.187 3.804-9.623 2.042-5.531-2.835-9.197-9.489-12.278-14.585-3.641-6.022-7.75-11.963-10.694-18.35-1.828-3.968-2.271-7.445 1.22-10.393 2.537-2.144 3.863-4.28 3.966-7.682.005-.147-.754-.038-.762.205z"/><path d="M191.208 269.768c1.831 8.77 6.276 18.602 11.596 25.811 7.321 9.92 21.036 13.63 30.506 21.039.132.104.833-.024.738-.242-1.96-4.48-8.22-5.855-12.171-7.954-.187-.1-.893.187-.615.333 3.06 1.627 6.31 2.812 9.263 4.648.957.596 1.62 1.465 2.495 2.15-1.44-1.126-3.004-2.097-4.549-3.069-6.376-4.015-13.187-7.264-19.279-11.734-5.029-3.689-7.933-8.634-10.652-14.122-2.664-5.377-5.337-11.159-6.569-17.063-.046-.219-.811-.031-.763.203zM268.596 332.41c2.457.766 4.765 1.88 7.13 2.883 1.049.444 3.194 1.701 4.361 1.269 3.468-1.285 4.273-6.029 3.929-9.141-.005-.051-.104-.062-.137-.063-5.177-.102-15.118-3.968-13.249 4.999.037.181.8-.003.763-.203-.46-2.443-.058-4.902 0-7.363l-.627.266h2.104c.756 0 .771-.229.405-.109-.731.241-1.499.502-2.096 1.014-1.943 1.668-2.382 3.936-2.128 6.396.017.165.785.014.763-.203-.333-3.222.583-6.365 4.285-7.109.101-.021.696-.316.312-.316h-3.154c-.15 0-.622.049-.627.266-.058 2.462-.459 4.921 0 7.363l.763-.203c-.729-3.496.021-5.709 4.109-5.388 2.24.177 4.441.688 6.683.875 3.03.254.164 9.242-2.951 8.385-3.462-.952-6.587-2.855-10.015-3.924-.182-.058-.864.231-.623.306z"/><path d="M265.89 315.449c.079 2.778.616 5.359 1.585 7.967.119.321.769.224.768-.125-.004-2.69-.084-5.313-.532-7.968-.06-.352-.768-.2-.768.126v.525c0 .128.063.191.17.247 5.896 3.067 13.798 3.868 15.615 11.402.091.378.854.176.762-.203-.799-3.314-2.756-5.783-5.788-7.37-1.408-.736-9.984-3.232-9.984-4.649l-.769.125c.438 2.603.515 5.184.52 7.812l.769-.125c-.955-2.571-1.493-5.06-1.571-7.812-.015-.421-.787-.32-.777.048zM195.942 282.391c2.457 8.667 3.592 18.354 10.546 24.765 7.349 6.775 17.824 8.721 26.875 12.131.219.082.914-.243.61-.358-9.389-3.535-18.72-5.719-26.774-12.064-7.136-5.621-8.187-16.538-10.494-24.676-.072-.254-.833-.047-.763.202z"/><path d="M220.137 316.053c3.37 6.382 8.332 10.15 15.324 11.821.185.044.856-.281.538-.387-5.055-1.67-10.467-3.058-14.24-7.031-3.412-3.595-4.227-7.414-9.422-8.917-.199-.058-.845.287-.538.386 4.443 1.435 8.996 2.552 13.149 4.734.216.114.919-.2.607-.364-2.234-1.174-4.532-2.026-6.93-2.803-1.037-.336-2.102-.646-3.145-.962-2.864-.867.872 1.744 1.351 2.221 2.776 2.765 3.899 6.387 7.318 8.671 3.027 2.022 7.936 3.126 10.43 3.722-6.252-1.494-10.752-5.749-13.681-11.294-.134-.257-.872-.007-.761.203zM216.463 146.752c1.193-.531 16.224-1.442 16.603-.148.273.933.392 1.929.551 2.886.749 4.503 1.351 9.032 1.972 13.554 2.153 15.671 4.146 31.364 6.155 47.055 3.598 28.109 6.52 56.403 11.004 84.389.043.27.81.088.762-.204-4.124-25.74-6.837-51.758-10.137-77.612-1.983-15.533-3.967-31.067-6.041-46.588-1.034-7.737-1.33-16.261-3.534-23.789-.027-.094-.151-.119-.234-.121-5.365-.101-12.309-2.016-17.405.25-.486.216-.043.482.304.328zM257.306 321.839c1.094 11.047 2.287 22.084 3.331 33.136.029.313.746.142.767-.137.205-2.925 2.307-10.253 7.207-6.593.182.136.661.013.682-.245.938-12.09-1.409-23.923-3.159-35.832-.046-.31-.767-.147-.767.137v3.155c0 .378.771.246.771-.069 0-3.428-.348-.202-.177.914.402 2.64.828 5.276 1.229 7.916.802 5.269 1.388 10.546 1.586 15.874.074 1.996-.007 3.989-.098 5.983-.081 1.807-.785.617-1.604.557-1.14-.084-1.978.011-2.954.703-1.52 1.075-2.312 2.891-2.936 4.566-.258.696-.356 1.373-.486 2.098.379-2.11.245-3.998.018-6.297-.859-8.692-1.787-17.378-2.646-26.07-.035-.322-.799-.142-.764.204zM205.583 152.105c2.049-1.056 9.007-5.956 9.596-2.75.304 1.655.588 3.313.872 4.972.832 4.871 1.622 9.749 2.408 14.627 2.19 13.577 4.308 27.167 6.423 40.755 3.592 23.086 7.039 46.197 10.771 69.261.032.199.799.027.762-.203-7.068-43.686-12.438-87.765-20.776-131.23-.026-.136-.347-.065-.42-.045-3.63 1.022-6.747 2.739-10.088 4.461-.453.235.246.259.452.152z"/><path d="M205.41 151.95c5.627 38.434 13.013 76.646 17.883 115.188.04.315.805.131.762-.203-4.87-38.543-12.255-76.754-17.883-115.188-.047-.317-.811-.131-.762.203zM236.679 164.427c-.061-4.722-.566-9.435-1.322-14.094-.195-1.203-.461-2.39-.743-3.575-.559-2.345-.328-.713-.06-.553 2.373 1.412 4.657 1.927 7.387 2.153 2.142.177 1.708 2.967 1.931 4.851.318 2.682.632 5.365.945 8.048 1.889 16.172 3.749 32.347 5.615 48.521 3.545 30.72 6.886 61.475 10.768 92.154.105.829.211 1.657.33 2.483.041.278.807.098.763-.204-3.574-24.532-5.864-49.31-8.709-73.934-3.166-27.405-6.193-54.831-9.542-82.215-.012-.096-.165-.125-.236-.126-3.722-.087-6.857-.609-9.786-3.081-.161-.136-.834-.044-.734.255 2.049 6.085 2.547 13.017 2.629 19.403.004.341.767.181.764-.086zM242.753 313.423c2.011 14.076 4.707 28.069 7.996 41.902.061.258.486.187.633.067 2.591-2.131 5.888-2.582 9.341-.302.275.182.948-.198.59-.436-2.2-1.452-4.625-2.357-7.246-1.339-1.117.434-2.084.91-3.044 1.618.954-.704-.986-6.216-1.206-7.208a462.468 462.468 0 0 1-6.301-34.507c-.05-.345-.814-.155-.763.205z"/><path d="M229.159 306.151c1.313.612 2.453 1.345 3.682 2.104.222.138.921-.149.601-.389l-2.104-1.578c-.158-.118-.772.032-.682.296 4.98 14.491 6.058 30.024 12.097 44.182.07.166.296.14.438.109 4.658-1.045 6.054 1.282 7.485 4.416.131.286.879.052.762-.203-.932-2.04-2.302-4.688-4.858-4.92-1.514-.138-2.995.558-3.824-1.387-1.249-2.927-2.172-5.989-3.053-9.042-1.754-6.079-2.875-12.338-4.213-18.515a170.722 170.722 0 0 0-2.3-9.3c-.987-3.568-.469-4.783-3.43-6.162-.244-.113-.938.234-.601.389z"/><path d="M242.491 350.504c5.849 12.685 12.52 25.543 20.194 37.219.151.229.681.029.736-.197 3.12-12.884 4.803-26.329 5.869-39.53.028-.348-.742-.213-.766.08-.604 7.483-1.579 14.933-2.683 22.357a288.2 288.2 0 0 1-1.944 11.456c-.3 1.573-.642 3.14-.998 4.701-.018.074-1.128-1.727-1.402-2.172a331.789 331.789 0 0 1-18.244-34.117c-.136-.295-.886-.065-.762.203z"/><path d="M257.731 378.3c2.695.142 5.013-.718 7.402-1.892-.164-.117-.328-.234-.492-.353-1.39 1.973-3.463 2.883-5.86 2.728-.371-.023-.787.496-.261.569 1.633.227 3.194.229 4.832.003-.074-.156-.147-.313-.223-.47-1.083.819-2.145 1.654-3.336 2.315-.24.134-.31.482.041.518 1.12.111 2.131.366 3.255.267l-.289-.407c-1.508 1.793-1.118 3.61-.586 5.744.09.364.853.162.762-.204-.474-1.899-.925-3.65.466-5.302.188-.223-.059-.427-.289-.406-1.061.094-2.021-.157-3.058-.26l.042.518c1.247-.693 2.366-1.56 3.502-2.419.258-.194.075-.51-.224-.469-1.568.218-3.06.222-4.635.003l-.261.569c2.699.174 5.182-.817 6.763-3.059.238-.339-.238-.477-.492-.353-2.182 1.073-4.314 1.919-6.799 1.79-.379-.018-.774.543-.26.57zM254.265 240.29c.089.211.18.421.264.635 7.68 1.872 9.938 6.374 6.822 13.309-2.115 4.709-4.854 9.13-4.396 14.482.013.154.78.012.762-.204-.637-7.449 5.135-12.734 6.103-19.758.679-4.937-4.616-7.283-9.555-8.464zM222.103 257.117c-.061-.247-.128-.493-.191-.739-.322 2.557-.486 5.145-.723 7.604-.012.123.726.022.758-.166a70.8 70.8 0 0 0 .517-3.822 62.6 62.6 0 0 1-.361-2.877z"/><path d="M265.584 243.761c-3.049-2.722-7.331-4.253-11.927-5.053.01.085.015.173.026.259.031.066.058.135.089.202 4.29.837 8.27 2.333 11.095 4.856.156.141.844-.15.717-.264zM303.976 258.1c4.443-6.469 4.532-16.858 1.77-24.023-1.297-3.36-4.463-3.804-7.096-1.682-4.955 3.992-7.321 9.97-10.711 15.16-3.552 5.438-7.948 11.264-8.83 17.878-.682 5.093 4.85 8.152 9.442 7.266 3.247-.628 5.613-2.202 7.934-4.556 1.541-1.563 2.646-3.518 3.673-5.435.997-1.861-1.256 1.942-1.275 1.978-2.436 4.405-19.768 20.416-21.187 8.608-.828-6.886 6.112-13.394 8.423-19.457.094-.243-.667-.148-.76.099-1.878 4.925-14.993 21.272-4.463 23.99 3.427.886 7.698-2.366 10.183-4.19 3.709-2.722 9.321-7.571 9.768-12.534.03-.334-.672-.097-.761.099-3.065 6.729-8.973 13.28-17.195 9.921-3.596-1.47-3.285-5.578-2.456-8.635 1.623-5.991 5.819-11.287 9.129-16.436 1.971-3.063 8.57-17.962 13.983-14.003 2.952 2.158 2.961 8.161 3.084 11.39.193 5.018-.465 10.335-3.363 14.553-.197.283.57.208.708.009zM203.918 287.237c3.501 2.109 6.102.252 8.758-2.313 1.77-1.709 3.833-4.595 6.973-2.637 1.565.977 2.625 2.972 3.539 4.506 1.798 3.021 3.168 6.282 4.928 9.328a18.505 18.505 0 0 0 2.351 3.191c1.95 2.152-3.725 1.502-4.59 1.442-5.521-.382-10.884-3.869-14.687-7.68-.65-.652 2.155.283 2.363.326 1.688.348 3.304.386 5.004.171 1.816-.229 2.959-1.391 3.902-2.829.227-.346-.551-.345-.727-.078-2.667 4.072-7.933 2.261-11.512 1.367-.178-.045-.826.125-.571.416 5.323 6.064 14.508 11.044 22.606 7.939.17-.065.317-.298.128-.431-6.079-4.281-6.451-13.376-12.146-18.1-5.717-4.743-9.246 8.856-15.73 4.95-.276-.164-.951.215-.589.432zM185.569 254.946c1.113-.799 7.699-2.485 3.773-1.778-.858.155-1.333.221-2.129.591-2.199 1.024-2.11 3.448-1.791 5.489.026.172.701-.042.756-.17 3.857-8.887 10.647 1.836 12.919 5.43.098.155.812-.044.762-.203-2.941-9.518-6.019-19.933-4.144-29.952 1.572-8.402 8.875-14.253 14.101-20.471.151-.18-.574-.076-.689.061-4.801 5.711-10.626 10.713-13.387 17.815-3.315 8.527-.558 18.982 1.754 27.397.337 1.188.687 2.375 1.048 3.557 1.024 1.154 1.138 1.178.339.069-.821-1.262-1.725-2.458-2.665-3.632-1.517-1.894-3.351-3.674-5.775-4.2-.623-.135-1.569.119-2.121.376-.747.347-1.043.765-1.587 1.362-.282.338-.514.71-.695 1.119 1.691-2.752-4.245-5.029 5.303-4.293.118.009.805-.234.561-.299-2.923-.782-4.478-.037-6.916 1.716-.309.222.452.11.583.016z"/><path d="M199.12 288.73c3.006 3.244 7.003 14.407 13.243 11.067 1.341-.718 3.802-2.643.957.796-1.783 2.154-4.894.609-6.617-.364-.938-.529-3.836-2.23-.918-.088 5.765 4.232 13.042 5.445 18.582 10.153.156.133.831-.163.718-.259-6.292-5.347-14.746-6.75-21.039-12.098-.143-.121-.837.136-.718.259 3.899 4.055 10.177 5.716 12.306-.723.065-.197-.642.029-.72.098-7.889 6.81-11.061-4.768-15.076-9.102-.13-.139-.834.135-.718.261z"/><path d="M199.098 292.91c1.939 3.998 6.906 20.883 13.818 17.918.694-.298 1.255-.698 1.818-1.198 1.141-1.013-.499-.147-.796.179-.727.8-1.684.985-2.68.693-2.36-.691-4.083-3.702-5.288-5.64-2.556-4.11-4.413-8.688-6.111-13.208-.118-.313-.875-.095-.762.204 1.598 4.254 9.989 26.698 16.521 16.758.215-.326-.52-.308-.674-.12-6.496 7.931-13.069-11.634-15.084-15.789-.148-.306-.897-.074-.762.203z"/><g><path d="M264.318 301.852c-.659 10.45 9.614 12.888 16.855 7.331 1.1-.844 1.075 1.53 1.162 2.397.357 3.551-3.151 4.885-6.353 4.693-2.516-.149-4.762-2.472-6.31-4.237-2.582-2.944-7.506-11.894-1.255-13.827.44-.136.37-.42-.076-.281-7.748 2.396-1.419 12.531 2.139 15.983 5.014 4.867 14.862 3.029 11.956-5.426-.027-.081-.158-.071-.222-.071-.32 0-.699-.054-.981.146-3.166 2.244-6.035 3.936-10.104 3.143-4.812-.937-6.32-5.771-6.051-10.054.012-.149-.743-.047-.76.203z"/></g><g><path d="M262.977 312.693c-.006-2.43-.277-3.71-2.774-4.302-.169-.039-.492.037-.589.196-.947 1.559-2.844 4.738-5.093 3.901-1.101-.409-1.297-1.817-1.104-2.799.131-.674.571-1.24 1.041-1.712.711-.712 4.301-1.854.838-.538-1.737.66-4.028-2.468-4.969-3.731l-.661.321c1.951.977 3.895 1.95 5.737 3.124.216.139.896-.17.709-.289-1.874-1.195-3.85-2.193-5.834-3.188-.155-.077-.842.077-.661.322 1.2 1.611 2.761 2.832 4.208 4.207.119.114.371.052.502-.003 1.218-.512 2.28-.823 3.312-1.668.284-.233-.211-.257-.349-.227-1.672.37-3.69 1.136-4.408 2.859-.48 1.152-.478 2.861.79 3.546 1.249.675 2.578.185 3.676-.556 1.064-.719 1.845-1.827 2.549-2.875.699-1.043 1.917.54 2.128 1.072.298.757.188 1.75.19 2.541 0 .216.762.079.762-.201z"/></g><g><path d="M295.557 201.657c-8.621-13.535-32.068-10.345-45.119-6.905-.373.099-.428.494.018.471 10.439-.527 21.135-1.055 31.252 2.051 11.014 3.38 16.8 12.106 20.755 22.342 3.319 8.591 5.869 17.921 5.525 27.196-.172 4.612-1.589 9.111-4.847 12.464-2.527 2.603-3.226 1.053-4.69-.944-.505-.688-1.396-1.261-2.06-1.749 1.756 1.29 2.744 2.217 3.693 4.244.141.3.89.068.763-.204-1.308-2.794-2.935-4.138-5.939-4.864-.194-.046-.891.229-.526.435 2.618 1.472 3.989 2.953 5.178 5.686.084.193.384.172.54.089 10.488-5.56 9.397-18.798 7.309-28.763-2.564-12.229-7.298-26.183-18.263-33.224-5.149-3.307-11.394-4.58-17.383-5.242-3.686-.408-7.415-.424-11.118-.386-1.459.016-2.916.068-4.375.118-.953.036-1.909.077-2.863.122-.31.014-3.412.736-1.055.155 12.53-3.088 34.39-5.511 42.504 7.227.159.25.894-.016.701-.319z"/></g></g><g><radialGradient id="J" cx="214.914" cy="297.572" r="0" gradientUnits="userSpaceOnUse"><stop offset="0" stop-color="#231f20" stop-opacity=".4"/><stop offset=".995" stop-opacity=".4"/></radialGradient></g><g><radialGradient id="K" cx="236.142" cy="232.309" r="34.265" gradientUnits="userSpaceOnUse"><stop offset="0" stop-color="#7fdc33" stop-opacity=".8"/><stop offset="1" stop-color="#51be38" stop-opacity=".193"/></radialGradient><path fill="url(#K)" d="M246.816 259.146c-2.104-7.89-1.052-17.357-3.682-26.299-4.208-11.571-1.052-23.143-4.208-35.24-.526-3.156-7.363-15.253-13.149-11.571-4.733 2.63 2.63 14.728 3.156 19.461 2.104 13.149.526 27.351 4.208 40.5 1.578 5.785 4.208 10.52 4.734 16.305.526 6.312-2.63 12.098 3.682 15.779 11.046 6.312 4.734-14.201 4.734-20.513"/></g><g><radialGradient id="L" cx="241.418" cy="263.842" r="19.433" gradientUnits="userSpaceOnUse"><stop offset="0" stop-color="#006800" stop-opacity=".8"/><stop offset=".529" stop-color="#006400" stop-opacity=".456"/><stop offset="1" stop-color="#006100" stop-opacity=".193"/></radialGradient><path fill="url(#L)" d="M250.498 289.652c-.074-.063.44-8.532.35-9.426-.43-4.24-1.459-8.425-2.396-12.573-1.477-6.54-.833-15.585-5.86-20.615-3.323-3.323-6.93-2.843-6.375-8.852-1.349-.344-2.873-.101-4.037.538-.262 4.483-.532 10.126.988 13.818 1.204 7.436-.404 18.021 2.86 24.855 2.611 5.467 9.993 8.526 14.47 12.255z"/></g><g><radialGradient id="M" cx="242.637" cy="273.293" r="16.002" gradientUnits="userSpaceOnUse"><stop offset="0" stop-color="#001e6c" stop-opacity=".8"/><stop offset="1" stop-color="#002877" stop-opacity=".193"/></radialGradient><path fill="url(#M)" d="M251.55 290.179c-.525-5.786-2.104-12.623-3.682-17.883-13.165 4.937-7.06-15.585-13.81-19.569-2.245 4.094.533 9.524 1.215 13.783.478 2.983-.3 9.353 1.396 11.726 1.35 1.889 6.826 3.874 8.993 6.171 2.524 2.675 5.477 6.099 6.415 9.454"/></g><g><radialGradient id="N" cx="257.336" cy="321.211" r="0" gradientUnits="userSpaceOnUse"><stop offset="0" stop-color="#007ed9" stop-opacity=".8"/><stop offset="1" stop-color="#007cff" stop-opacity=".193"/></radialGradient></g><g><radialGradient id="O" cx="254.372" cy="270.171" r="21.658" gradientUnits="userSpaceOnUse"><stop offset="0" stop-color="#ffb300" stop-opacity=".8"/><stop offset="1" stop-color="#ffb700" stop-opacity=".193"/></radialGradient><path fill="url(#O)" d="M260.491 300.172c.526-12.623-3.155-24.194-4.733-36.292 0-4.208 0-19.461-2.63-22.091-6.837-7.363-4.733 12.623-4.208 15.253 1.052 8.416 4.208 16.831 4.734 24.721.525 7.364-2.104 14.728 6.312 17.357 1.052-3.682.525-7.89-.526-11.046"/></g><g><image overflow="visible" width="522" height="607" xlink:href="37E345F8.png" transform="matrix(.24 0 0 .24 127.769 137.763)"/></g><g><image overflow="visible" width="592" height="707" xlink:href="37E345FE.png" transform="matrix(.24 0 0 .24 114.138 183.143)"/></g><g><image overflow="visible" width="462" height="508" xlink:href="37E345FB.png" transform="matrix(.24 0 0 .24 238.073 224.02)"/></g><g><linearGradient id="P" gradientUnits="userSpaceOnUse" x1="254.871" y1="353.144" x2="256.871" y2="463.814"><stop offset=".005"/><stop offset="1" stop-opacity="0"/></linearGradient><path fill="url(#P)" d="M253.695 393.651c3.486.503 6.95.651 10.472.679 2.976.024-6.147 1.673-5.271 1.479-3.152.695-6.368.966-9.588 1.029-.408.008-2.467.832-1.426.826 5.814-.03 11.622-.284 17.434-.048 1.604.075 3.199.225 4.788.445 2.864.354-3.742 1.022-4.265 1.124-3.461.674-6.983 1.024-10.49 1.357-11.002 1.043-22.029 1.198-32.834 3.747-.286.067-1.582.653-.634.707 19.759 1.131 39.49-.729 59.233-1.317 10.135-.302 20.273-.13 30.363.928.838.088 6.039.883 5.276 1.049-2.773.604-5.585 1.047-8.392 1.456-4.735.69-9.514 1.082-14.285 1.407-18.646 1.272-37.348.605-55.942 2.74-17.127 1.967-34.26 4.711-50.571 10.452-.103.037-1.13.537-.534.605 21.598 2.479 43.235.332 64.717-2.245 11.75-1.409 23.485-2.922 35.278-3.923a278.995 278.995 0 0 1 18.281-.94c3.074-.059 6.148-.012 9.222.069 1.227.038 2.453.09 3.68.153 3.646.171.768.858-.579 1.325-21.703 7.519-45.774 4.842-68.321 5.414-24.107.611-48.202 2.028-72.233 4.013-.326.026-2.251.803-1.193.813 31.844.327 63.557-2.956 95.331-4.522 15.883-.783 31.792-1.035 47.678-.221 4.354.224 8.701.578 13.041.995 1.933.186 4.186.037 1.354 1.753-1.785 1.081-3.874 1.708-5.86 2.287-6.091 1.778-12.548 2.282-18.826 3.014-30.61 3.563-61.445 4.684-92.106 7.739-8.206.818-16.417 1.557-24.655 1.962-3.801.188-7.606.245-11.411.235-.843-.002-6.128.764-1.352.751 2.576-.007 5.152-.028 7.729-.051 16.188-.145 32.374-.595 48.558-.991 33.506-.82 67.068-1.43 100.522 1.049.425.032 2.478-.749 1.426-.826-53.496-3.964-107.117-.048-160.667 0-.405 0-2.478.802-1.426.826 15.415.367 30.743-1.194 46.059-2.729 16.523-1.654 33.094-2.59 49.651-3.818 13.907-1.032 27.775-2.283 41.622-3.918 8.278-.978 18.33-1.856 25.025-7.385.15-.124.132-.272-.08-.296-25.46-2.808-51.063-2.066-76.584-.567-13.406.787-26.799 1.79-40.204 2.596-7.533.452-15.071.814-22.613 1.063-3.156.104-6.313.167-9.47.217-1.888.029-3.776.036-5.665.042-1.75.006-3.375.496-4.898.622 26.911-2.223 54.002-3.927 81.013-3.953 21.577-.021 43.737.607 64.139-7.514.388-.154.693-.479.097-.52-21.772-1.501-43.45 1.117-65.03 3.756-11.087 1.356-22.178 2.675-33.322 3.462-6.034.427-12.08.605-18.128.578-2.434-.011-4.867-.104-7.298-.211a157.48 157.48 0 0 1-5.268-.349c-.87-.068-3.54-.806-4.295-.539 22.137-7.793 46.761-10.28 70.093-11.09 20.059-.695 40.283-.289 59.948-4.9.123-.029 1.468-.591.819-.693-24.153-3.847-48.553-1.35-72.833-.499-6.341.223-12.684.265-19.026.085a198.214 198.214 0 0 1-3.776-.159c1.575.074 4.285-.735 5.663-.935 2.98-.433 5.987-.68 8.986-.926 11.045-.907 22.089-1.242 32.834-4.206.111-.031 1.475-.588.819-.693-7.438-1.198-14.96-.793-22.462-.69-1.494.021-2.377.854.41.695 1.795-.103 3.574-.396 5.348-.676 3.471-.547 6.867-1.55 10.171-2.724.285-.102 1.176-.618.348-.619-3.966-.005-7.879-.087-11.814-.653-.495-.068-2.33.726-1.801.802z"/></g></svg>