<svg xmlns="http://www.w3.org/2000/svg" width="20" height="20"><path fill="#DD4A3D" d="M10.039 0A9.982 9.982 0 0 0 .056 9.983c0 5.515 4.468 9.984 9.982 9.984 5.512 0 9.985-4.469 9.985-9.984C20.023 4.469 15.551 0 10.039 0zm.001 3.507l5.905 3.684H4.132l5.908-3.684zm5.981 9.565a1.07 1.07 0 0 1-1.071 1.069H5.128a1.069 1.069 0 0 1-1.069-1.069V7.423c0-.061.006-.121.016-.182l5.644 3.52c.004.005.015.008.022.011.008.005.014.01.022.012a.58.58 0 0 0 .123.048l.013.003a.59.59 0 0 0 .14.017h.001a.562.562 0 0 0 .139-.017l.013-.003a.624.624 0 0 0 .124-.048c.008-.002.015-.007.022-.012.007-.003.014-.005.022-.011l5.643-3.52a.937.937 0 0 1 .019.182v5.649z"/></svg>