<svg xmlns="http://www.w3.org/2000/svg" width="20" height="20"><circle fill="#EBEBEB" cx="9.986" cy="10.016" r="9.986"/><radialGradient id="a" cx="15.472" cy="3.871" r="14.304" gradientUnits="userSpaceOnUse"><stop offset=".073" stop-color="#54b25d"/><stop offset=".277" stop-color="#4dac59"/><stop offset=".561" stop-color="#3c9d4d"/><stop offset=".892" stop-color="#1a873d"/><stop offset=".896" stop-color="#19873d"/></radialGradient><path fill="url(#a)" d="M19.203 10.016c0 5.089-4.129 9.217-9.217 9.217-5.091 0-9.219-4.128-9.219-9.217A9.22 9.22 0 0 1 18.39 6.23a9.108 9.108 0 0 1 .813 3.786z"/><path opacity=".1" fill="#FFF" d="M18.391 6.23a9.217 9.217 0 0 1-16.811 0 9.22 9.22 0 1 1 16.811 0z"/><g fill="#FFF"><path d="M10.041 4.73a5.208 5.208 0 0 0-5.202 5.201c0 .944.251 1.854.727 2.655l-.838 2.716 2.87-.777a5.206 5.206 0 0 0 7.643-4.594 5.206 5.206 0 0 0-5.2-5.201zm0 9.555a4.334 4.334 0 0 1-2.323-.673l-.061.018-1.664.45.502-1.624a4.352 4.352 0 1 1 3.546 1.829z"/><path d="M9.183 8.651s.154.234 0 .424c-.152.19-.28.335-.28.335s-.136.099 0 .297c.136.199.695 1.056 1.662 1.437 0 0 .297.127.423-.163l.309-.397s.072-.1.308 0c.234.1.975.46.975.46s.137.045.109.244-.1.967-1.165 1.048c0 0-1.032.037-2.186-.858a6.237 6.237 0 0 1-1.57-1.835c-.148-.297-.257-.623-.241-.939l.003-.112c.024-.347.164-.76.687-.998 0 0 .423-.063.498 0l.468 1.057z"/></g></svg>